<?xml version="1.0" encoding="utf-8"?>
<!-- Generator: Adobe Illustrator 24.2.3, SVG Export Plug-In . SVG Version: 6.00 Build 0)  -->
<svg version="1.1" id="Layer_1" xmlns="http://www.w3.org/2000/svg" xmlns:xlink="http://www.w3.org/1999/xlink" x="0px" y="0px"
	 viewBox="0 0 1271.3 476.3" style="enable-background:new 0 0 1271.3 476.3;" xml:space="preserve">
<style type="text/css">
	.st0{display:none;fill-rule:evenodd;clip-rule:evenodd;fill:#231F20;}
	.st1{fill:none;stroke:#FFFFFF;stroke-width:10;stroke-miterlimit:10;}
	.st2{fill:#FFFFFF;}
	.st3{fill:none;stroke:#FFFFFF;stroke-width:5;stroke-miterlimit:10;}
	.st4{display:none;fill:#A9C4FF;}
	.st5{display:none;fill:none;stroke:#0C1968;stroke-width:8;stroke-miterlimit:10;}
	.st6{display:none;fill:none;stroke:#0C1968;stroke-width:6;stroke-miterlimit:10;}
	.st7{display:none;fill:none;stroke:#0C1968;stroke-width:2;stroke-miterlimit:10;}
	.st8{fill:none;stroke:#FFFFFF;stroke-width:14;stroke-miterlimit:10;}
	.st9{display:none;}
	.st10{display:inline;fill:#0C1968;}
	.st11{enable-background:new    ;}
	.st12{display:none;fill:#0C1968;}
	.st13{fill-rule:evenodd;clip-rule:evenodd;fill:#FAFBFF;}
	.st14{fill-rule:evenodd;clip-rule:evenodd;fill:#FFFFFF;}
	.st15{fill:none;stroke:#FFFFFF;stroke-miterlimit:10;}
</style>
<rect class="st0" width="1271.3" height="476.3"/>
<g>
	<g id="Lines_2_">
		
			<image style="overflow:visible;opacity:0.79;" width="866" height="465" xlink:href="49701467AF751BB8.png"  transform="matrix(1 0 0 1 396.2494 10.72)">
		</image>
		<g>
			<g>
				<g>
					<path class="st1" d="M428.3,26.2H675v249.9c-2.5-0.3-4.9-0.3-7.4-0.3c-49.4,0-89.5,40.1-89.5,89.5c0,35.4,20.5,65.9,50.3,80.5
						H428.3V26.2z"/>
					<path class="st1" d="M712,26.2h246.8v250.2c-49,0.5-88.6,40.3-88.6,89.5c0,34.9,20,65.1,49.1,79.9H706.9
						c29.8-14.5,50.3-45.1,50.3-80.5c0-33.3-18.2-62.4-45.2-77.8L712,26.2L712,26.2z"/>
					<path class="st1" d="M1247.6,26.2v419.6h-247.5c29.2-14.8,49.1-45,49.1-79.9c0-34.6-19.6-64.6-48.4-79.5V26.2H1247.6z"/>
				</g>
			</g>
		</g>
	</g>
	<g id="MOTORS_2_">
		<g>
			
				<image style="overflow:visible;opacity:0.79;" width="147" height="161" xlink:href="49701467AF751BB9.png"  transform="matrix(1 0 0 1 418.2494 288.72)">
			</image>
			<g>
				<polygon class="st2" points="465.8,347 458.9,416.7 447.6,416.7 458.9,308.5 500.2,392 541.8,308.5 552.9,416.7 541.6,416.7 
					534.8,346.9 500.1,418.7 				"/>
				<polygon class="st3" points="465.8,347 458.9,416.7 447.6,416.7 458.9,308.5 500.2,392 541.8,308.5 552.9,416.7 541.6,416.7 
					534.8,346.9 500.1,418.7 				"/>
			</g>
		</g>
		<path class="st4" d="M612.5,362.8c0-32.1,25.7-55.4,54-55.4c31.2,0,54.2,25.8,54.2,55.4c0,32.1-25.5,55.4-54.2,55.4
			C636.5,418.1,612.5,393.1,612.5,362.8z M709.6,362.8c0-12.3-4.1-22.7-12.3-31.4c-8.3-8.6-18.5-12.9-30.8-12.9
			c-25.8,0-42.9,21.2-42.9,44.3c0,24.9,18.9,44.3,42.9,44.3C691.6,407,709.6,386.8,709.6,362.8z"/>
		<g>
			<circle class="st5" cx="961" cy="362.8" r="10"/>
			<circle class="st6" cx="961" cy="362.8" r="18.3"/>
			<circle class="st7" cx="961" cy="362.8" r="27.5"/>
			<circle class="st8" cx="961" cy="362.8" r="46.7"/>
			<g>
				<polygon class="st2" points="966.6,309.8 955,309.8 955.7,301.5 965.9,301.5 				"/>
				<polygon class="st2" points="945.9,311.6 935.1,316.1 932.7,308.1 942,304.3 				"/>
				<polygon class="st2" points="927.4,321.3 919.2,329.5 913.9,323.1 921.1,316 				"/>
				<polygon class="st2" points="914.1,337.3 909.6,348 902.3,344.2 906.1,334.8 				"/>
				<polygon class="st2" points="907.9,357.2 907.9,368.8 899.6,368 899.6,357.9 				"/>
				<polygon class="st2" points="909.7,377.9 914.2,388.6 906.3,391.1 902.4,381.8 				"/>
				<polygon class="st2" points="919.4,396.3 927.6,404.6 921.2,409.9 914.1,402.7 				"/>
				<polygon class="st2" points="935.4,409.7 946.1,414.1 942.3,421.5 932.9,417.6 				"/>
				<polygon class="st2" points="955.3,415.9 966.9,415.9 966.2,424.2 956,424.2 				"/>
				<polygon class="st2" points="976,414 986.8,409.6 989.2,417.5 979.9,421.4 				"/>
				<polygon class="st2" points="994.5,404.4 1002.7,396.2 1008,402.5 1000.9,409.7 				"/>
				<polygon class="st2" points="1007.8,388.4 1012.3,377.6 1019.6,381.5 1015.8,390.9 				"/>
				<polygon class="st2" points="1014,368.5 1014,356.9 1022.3,357.6 1022.3,367.8 				"/>
				<polygon class="st2" points="1012.2,347.8 1007.7,337 1015.7,334.5 1019.5,343.9 				"/>
				<polygon class="st2" points="1002.5,329.3 994.3,321.1 1000.7,315.8 1007.8,322.9 				"/>
				<polygon class="st2" points="986.5,316 975.8,311.5 979.6,304.1 989,308 				"/>
			</g>
			<g class="st9">
				<circle class="st10" cx="961" cy="329.1" r="2.2"/>
				<circle class="st10" cx="950.5" cy="330.7" r="2.2"/>
				<circle class="st10" cx="941.1" cy="335.5" r="2.2"/>
				<circle class="st10" cx="933.7" cy="343" r="2.2"/>
				<circle class="st10" cx="928.9" cy="352.4" r="2.2"/>
				<circle class="st10" cx="927.2" cy="362.8" r="2.2"/>
				<circle class="st10" cx="928.9" cy="373.3" r="2.2"/>
				<circle class="st10" cx="933.7" cy="382.7" r="2.2"/>
				<circle class="st10" cx="941.1" cy="390.1" r="2.2"/>
				<circle class="st10" cx="950.5" cy="394.9" r="2.2"/>
				<circle class="st10" cx="961" cy="396.6" r="2.2"/>
				<circle class="st10" cx="971.4" cy="394.9" r="2.2"/>
				<circle class="st10" cx="980.8" cy="390.1" r="2.2"/>
				<circle class="st10" cx="988.2" cy="382.7" r="2.2"/>
				<circle class="st10" cx="993" cy="373.3" r="2.2"/>
				<circle class="st10" cx="994.7" cy="362.8" r="2.2"/>
				<circle class="st10" cx="993" cy="352.4" r="2.2"/>
				<circle class="st10" cx="988.2" cy="343" r="2.2"/>
				<circle class="st10" cx="980.8" cy="335.5" r="2.2"/>
				<circle class="st10" cx="971.4" cy="330.7" r="2.2"/>
			</g>
		</g>
		<g>
			
				<image style="overflow:visible;opacity:0.79;" width="115" height="149" xlink:href="49701467AF751BBF.png"  transform="matrix(1 0 0 1 746.2494 296.72)">
			</image>
			<g>
				<polygon class="st2" points="807.1,417.5 807.1,320.7 775.4,320.7 775.4,309.7 849.6,309.7 849.6,320.7 817.9,320.7 
					817.9,417.5 				"/>
				<polygon class="st3" points="807.1,417.5 807.1,320.7 775.4,320.7 775.4,309.7 849.6,309.7 849.6,320.7 817.9,320.7 
					817.9,417.5 				"/>
			</g>
		</g>
		<g>
			<circle class="st5" cx="666.6" cy="362.8" r="10"/>
			<circle class="st6" cx="666.6" cy="362.8" r="18.3"/>
			<circle class="st7" cx="666.6" cy="362.8" r="27.5"/>
			<circle class="st8" cx="666.6" cy="362.8" r="46.7"/>
			<g>
				<polygon class="st2" points="672.2,309.7 660.6,309.7 661.4,301.4 671.5,301.4 				"/>
				<polygon class="st2" points="651.5,311.6 640.7,316 638.3,308.1 647.6,304.2 				"/>
				<polygon class="st2" points="633,321.3 624.8,329.5 619.5,323.1 626.7,315.9 				"/>
				<polygon class="st2" points="619.7,337.3 615.2,348 607.9,344.1 611.8,334.8 				"/>
				<polygon class="st2" points="613.5,357.1 613.5,368.8 605.2,368 605.2,357.9 				"/>
				<polygon class="st2" points="615.3,377.9 619.8,388.6 611.9,391.1 608,381.7 				"/>
				<polygon class="st2" points="625,396.3 633.2,404.5 626.8,409.9 619.7,402.7 				"/>
				<polygon class="st2" points="641,409.7 651.7,414.1 647.9,421.5 638.5,417.6 				"/>
				<polygon class="st2" points="660.9,415.9 672.5,415.9 671.8,424.2 661.6,424.2 				"/>
				<polygon class="st2" points="681.6,414 692.4,409.6 694.8,417.5 685.5,421.4 				"/>
				<polygon class="st2" points="700.1,404.4 708.3,396.1 713.6,402.5 706.5,409.7 				"/>
				<polygon class="st2" points="713.4,388.4 717.9,377.6 725.2,381.5 721.4,390.8 				"/>
				<polygon class="st2" points="719.6,368.5 719.6,356.9 727.9,357.6 727.9,367.7 				"/>
				<polygon class="st2" points="717.8,347.7 713.3,337 721.3,334.5 725.1,343.9 				"/>
				<polygon class="st2" points="708.1,329.3 699.9,321.1 706.3,315.7 713.4,322.9 				"/>
				<polygon class="st2" points="692.1,315.9 681.4,311.5 685.2,304.1 694.6,308 				"/>
			</g>
			<g class="st9">
				<circle class="st10" cx="666.6" cy="329.1" r="2.2"/>
				<circle class="st10" cx="656.1" cy="330.7" r="2.2"/>
				<circle class="st10" cx="646.7" cy="335.5" r="2.2"/>
				<circle class="st10" cx="639.3" cy="343" r="2.2"/>
				<circle class="st10" cx="634.5" cy="352.4" r="2.2"/>
				<circle class="st10" cx="632.8" cy="362.8" r="2.2"/>
				<circle class="st10" cx="634.5" cy="373.2" r="2.2"/>
				<circle class="st10" cx="639.3" cy="382.6" r="2.2"/>
				<circle class="st10" cx="646.7" cy="390.1" r="2.2"/>
				<circle class="st10" cx="656.1" cy="394.9" r="2.2"/>
				<circle class="st10" cx="666.6" cy="396.5" r="2.2"/>
				<circle class="st10" cx="677" cy="394.9" r="2.2"/>
				<circle class="st10" cx="686.4" cy="390.1" r="2.2"/>
				<circle class="st10" cx="693.8" cy="382.6" r="2.2"/>
				<circle class="st10" cx="698.6" cy="373.2" r="2.2"/>
				<circle class="st10" cx="700.3" cy="362.8" r="2.2"/>
				<circle class="st10" cx="698.6" cy="352.4" r="2.2"/>
				<circle class="st10" cx="693.8" cy="343" r="2.2"/>
				<circle class="st10" cx="686.4" cy="335.5" r="2.2"/>
				<circle class="st10" cx="677" cy="330.7" r="2.2"/>
			</g>
		</g>
		<path class="st4" d="M906.6,362.8c0-32.1,25.7-55.4,54-55.4c31.2,0,54.2,25.8,54.2,55.4c0,32.1-25.5,55.4-54.2,55.4
			C930.6,418.1,906.6,393.1,906.6,362.8z M1003.8,362.8c0-12.3-4.1-22.7-12.3-31.4c-8.3-8.6-18.5-12.9-30.8-12.9
			c-25.8,0-42.9,21.2-42.9,44.3c0,24.9,18.9,44.3,42.9,44.3C985.7,407,1003.8,386.8,1003.8,362.8z"/>
		<g>
			
				<image style="overflow:visible;opacity:0.79;" width="195" height="155" xlink:href="49701467AF751BBA.png"  transform="matrix(1 0 0 1 1049.2494 295.72)">
			</image>
			<g>
				<path class="st2" d="M1145.5,413.9c-13.8-8-25.1-18.5-33.6-31.5c-3.2-4.7-4.7-7.2-5-8l-4.1-9l7.2,0.2c17.4,0,30-2.7,30-20.6
					c0-16.8-8.9-23.9-22.7-23.9h-28.4v95.8h-10.8V309.5h43.7c4.4,0.2,12.8,2.7,20.3,9.9c5.9,6.6,8.7,15.2,8.7,25.8
					c0,20.4-13.8,31.2-29.7,31.7c2.1,3.2,5.4,7.4,10.2,12.5c4.8,5.1,10.8,9.9,17.9,14.3c7.2,4.4,15.5,6.9,24.8,7.7l7.2,0.3
					c13.1,0,26.7-3,42.3-19.8l8.1,7.2c-18,19.2-35.1,23.4-51,23.4C1167.1,422.4,1155.4,419.5,1145.5,413.9z M1173.4,386.6
					c-5-2.9-8.4-7.4-10.4-13.8l10.8-3.5c1.8,7.1,6.3,10.7,13.7,10.7c7.5,0,15-3.9,15-11.4c0-3.2-1.5-5.9-4.4-7.8
					c-2.9-2.1-6.3-4.1-10.2-6c-5-2.3-9.5-5-13.7-8.3c-4.7-3.8-7.4-8.6-7.4-15.5c0-14.4,12.3-21.9,22.8-21.9
					c7.8,0,16.2,4.1,20.6,14.6l-10.4,4.8c-1.8-5.6-5.3-8.4-10.2-8.4c-5.9,0-11.6,3.3-11.6,11.1c0,2.9,1.4,5.4,4.2,7.4
					c2.7,2,6,3.9,9.8,5.7c5.3,2.4,10.1,5.4,14.6,9c4.4,3.6,6.8,8.6,7.2,15c0,13.8-13.5,22.4-25.4,22.7
					C1183.5,391,1178.4,389.5,1173.4,386.6z"/>
				<path class="st3" d="M1145.5,413.9c-13.8-8-25.1-18.5-33.6-31.5c-3.2-4.7-4.7-7.2-5-8l-4.1-9l7.2,0.2c17.4,0,30-2.7,30-20.6
					c0-16.8-8.9-23.9-22.7-23.9h-28.4v95.8h-10.8V309.5h43.7c4.4,0.2,12.8,2.7,20.3,9.9c5.9,6.6,8.7,15.2,8.7,25.8
					c0,20.4-13.8,31.2-29.7,31.7c2.1,3.2,5.4,7.4,10.2,12.5c4.8,5.1,10.8,9.9,17.9,14.3c7.2,4.4,15.5,6.9,24.8,7.7l7.2,0.3
					c13.1,0,26.7-3,42.3-19.8l8.1,7.2c-18,19.2-35.1,23.4-51,23.4C1167.1,422.4,1155.4,419.5,1145.5,413.9z M1173.4,386.6
					c-5-2.9-8.4-7.4-10.4-13.8l10.8-3.5c1.8,7.1,6.3,10.7,13.7,10.7c7.5,0,15-3.9,15-11.4c0-3.2-1.5-5.9-4.4-7.8
					c-2.9-2.1-6.3-4.1-10.2-6c-5-2.3-9.5-5-13.7-8.3c-4.7-3.8-7.4-8.6-7.4-15.5c0-14.4,12.3-21.9,22.8-21.9
					c7.8,0,16.2,4.1,20.6,14.6l-10.4,4.8c-1.8-5.6-5.3-8.4-10.2-8.4c-5.9,0-11.6,3.3-11.6,11.1c0,2.9,1.4,5.4,4.2,7.4
					c2.7,2,6,3.9,9.8,5.7c5.3,2.4,10.1,5.4,14.6,9c4.4,3.6,6.8,8.6,7.2,15c0,13.8-13.5,22.4-25.4,22.7
					C1183.5,391,1178.4,389.5,1173.4,386.6z"/>
			</g>
		</g>
	</g>
	<g class="st11">
		
			<image style="overflow:visible;opacity:0.79;" width="802" height="248" xlink:href="49701467AF751BBB.png"  transform="matrix(1 0 0 1 424.2494 43.72)">
		</image>
		<g>
			<g>
				<path class="st2" d="M581.2,183.9h-63.4v82.9h-66.6V54.2h66.7v76.6h63.4V54.2H648v212.6h-66.7L581.2,183.9L581.2,183.9z"/>
				<path class="st2" d="M864.7,183.9h-63.4v82.9h-66.7V54.2h66.7v76.6h63.4V54.2h66.7v212.6h-66.7L864.7,183.9L864.7,183.9z"/>
				<path class="st2" d="M1217.2,159.9c0,60.7-42.6,106.9-110.5,106.9h-88.6V54.2h88.6C1174.6,54.2,1217.2,98.6,1217.2,159.9z
					 M1100.7,207.3c29.4,0,48.9-16.5,48.9-47.4s-19.5-47.4-48.9-47.4h-15.9v94.9L1100.7,207.3L1100.7,207.3z"/>
			</g>
		</g>
	</g>
</g>
<g>
	<path class="st13" d="M177.5,160.5c0-0.7,0.3-1,1-1c17.7-30.9,36-61.5,54.8-91.8c7.8-9.6,17.5-16.2,29.1-19.7c4.7-1,9.3-2,13.8-3
		c19.7-0.9,39.5-1.7,59.2-2.5C367,42.2,398.5,42,430,42V30.5c-54.6,0.1-109.2,1.2-163.7,3.3c-16.5,4.2-30.5,12.6-42,25.2
		c-17.4,27.9-34,56.1-49.8,84.9c-0.7-8.3-1.9-16.5-3.5-24.7c-0.8-4.1-2.9-7.2-6.4-9.4c-14.1-1.6-28.2-2-42.5-1
		c-1.2,1.2-2.3,2.3-3.5,3.5c-6.7,22.3,1.7,32,25.2,29.1c1.8,4.6,3.2,9.4,3.9,14.3h-6.9c-11.3,1.5-22.9,2-34.5,2
		c-11.9,0.4-23.7,1-35.6,2c-14.3-2-26.4,2-36.5,11.9c-4.9,4.5-8,10.1-9.4,16.8c-0.7,4.6-0.7,9.2,0,13.8C28,231,30.3,260,31.7,289
		c-3.8,3.7-6.6,7.9-8.4,12.8c-0.7,4.3-1,8.5-1,12.8c0.7,4.7,2.6,9,5.5,12.8c5,5.6,10.6,10.6,16.8,14.8c1,3.1,2.1,6,3.5,8.9
		c4,11.4,10.9,20.8,20.7,28.1c1.8,1.1,3.8,1.6,5.9,1.5c-0.2,12.2,0,24.4,0.5,36.5c4.8,14,14.2,23.4,28.1,28.1
		c19.8,0.9,39.5,0.6,59.2-1c15.9-5.1,25.1-15.9,27.6-32.1v-27.6c22.3-0.3,44.3,0,66.1,1h2c12.6,0.7,25.1,1.3,37.5,2
		c0.7,0.3,1.3,0.7,2,1c2.7,4.4,6.7,6,11.9,4.9c5.7,0.5,10.7-1.1,14.8-4.9c35.2-0.6,70.4-0.9,105.5-1V373h-55.3
		c-2-14.8-2.6-29.9-2-45.4H430v-8.9c-23.1,0.3-46.1,1-69.1,2h-37.5c-0.2-2.1,0.2-4.1,1-5.9h1c3.1-0.9,6.4-1.3,9.9-1
		c31.5-0.6,63.1-1,94.7-1.3v-11.5c-0.3,0-0.6,0-1,0h-5.9c-34,0.3-68,0-101.7-1c-0.9,0.2-1.6-0.2-2-1c-3.8-0.9-7.8-1.2-11.9-1
		c-1.5,0.2-2.9,0.8-3.9,2c-12.2,1.2-24.3,1.3-36.5,0.5c-1.9-1.5-3.2-3.2-3.9-5.5c52.8-1,105.8-1.3,158.9-1V278h-161v-5.9h121.5
		c13-0.9,26.2-1.3,39.5-1.5c0.9-5,1.3-10.2,1-15.3h-162v-5.9c53.8-1,107.7-1.3,161.9-1v-14.8H261.2c-0.3-2.6,0-4.9,1-6.9
		c53.5-1,107.1-1.3,161-1V210h6.8v-2.8H261.2c-1.9,0.3-3.5,0.9-4.9,2c0.2,1.6-0.4,2.6-2,3c-1.4,0.6-2.4,1.6-3,3
		c-0.2,1.4-0.7,2.7-1.5,3.9c-0.8,26-0.7,52,0.5,78h1c1.5,5.5,4.8,9.4,9.9,11.9c0.3,0.7,0.7,1.3,1,2c1.6,0.2,3,0.9,3.9,2
		c10.5-0.2,21.1,0,31.6,0.5c1.5,1.1,2,2.6,2,4.4c0.3,2.6-0.8,4.2-3,4.9c-10.6-0.5-21.1-1.4-31.6-2.5c-2.9-0.7-5.2-2.1-6.9-4.4
		c-4.6-3.9-8.9-8.2-12.8-12.8c0.1-2-0.5-3.7-2-4.9c-1.5-2.1-2.4-4.4-3-6.9v-97.8c-1-0.7-2-1.3-3-2h-3c-64-0.3-127.9,0-191.5,1
		c-1.6,0.2-3.1-0.1-4.4-1c-0.8-2.5-0.6-4.8,0.5-6.9c0.7-0.3,1.3-0.7,2-1c0.1-1.1,0.4-2,1-3h1c0.7-1.3,1.6-2.3,3-3
		c2.9-2.4,6.2-4.2,9.9-5.5c24.8-1.3,49.6-2.7,74-4.4c14.8-0.3,29.6-0.6,44.4-1v-1C174.3,163,175.3,161.3,177.5,160.5z M324.5,333.4
		c13.1-0.3,25.8,0,38.5,1v6.9h-38.5V333.4z M324.5,349.3H363v24.7h-38.5V349.3z M307.6,309.8h6.9v72.1h-6.9V309.8z M38.1,319.7
		c10.8-1,21.7-1.3,32.6-1v17.7c-4.3,0.2-8.5,0-12.8-0.5C50.7,331.2,44.1,325.8,38.1,319.7z M110.2,426.3c-1.3,0.3-2.3-0.1-3-1
		c-4.9-2.8-8.7-6.7-11.3-11.9c-0.5-10.2-0.7-20.4-0.5-30.6h13.8C110.2,397.1,110.6,411.6,110.2,426.3z M136.8,426.3
		c-1.1-1.3-2.5-2.3-3.9-3v3c-5.1-2.5-9.4-6.1-12.8-10.8c-1-10.8-1.3-21.7-1-32.6h13.8c0.9,12.6,1.3,25.5,1.5,38.5
		c1.4,1.2,2.5,2.5,3.5,3.9C137.5,425.6,137.2,426,136.8,426.3z M154.7,425.3c-4.6-2.8-8.4-6.4-11.3-10.8
		c-0.5-10.5-0.7-21.1-0.5-31.6h11.9C154.8,397,154.8,411.2,154.7,425.3z M87.5,371c-1.9,0.3-3.5-0.1-4.9-1
		c-5.5-0.7-10.5-2.8-14.8-6.4c-3.7-4.8-6.6-9.9-8.9-15.3v-3c5.3,0.3,10.5,0.7,15.8,1c42.1-0.2,84.3,0,126.3,0.5
		c0.9,0.3,1.5,0.8,2,1.5c11,6.7,21.9,13.6,32.6,20.7c0.8,0.3,1.5,0.8,2,1.5C187.5,371,137.5,371.2,87.5,371z M99.3,337.4
		c-7.4,1.3-14.7,1.3-21.8,0c-0.9-5.7-1.3-11.7-1-17.7c7.1-0.9,14.3-1.3,21.8-1v17.7C98.9,336.5,99.2,336.8,99.3,337.4z M104.3,322.6
		v-3h60.2c0.6,0.1,1.1,0.4,1.5,1c0.6,6,0.4,11.9-0.5,17.7c-10.3-0.6-20.6-1.2-30.6-2h-2.9c-0.3,0.8-0.8,1.5-1.5,2
		c-5.7-1.3-11.5-1.3-17.3,0c-2.8-0.6-5.4-1.2-7.9-2c-0.7-0.3-1.3-0.7-2-1v-7.9C103,325.6,103.3,324,104.3,322.6z M170.4,337.4v-18.8
		h4.9c6.1-0.3,12,0,17.7,1v16.8C185.7,337.4,178.2,337.8,170.4,337.4z M298.7,373.9c-13.6,0.3-27.1,0-40.5-1
		c-4.4-1.9-8.8-4.4-12.8-7.4c-11.9-9-24.1-17.5-36.5-25.7c-3.2-1.5-6.6-2.6-9.9-3.5v-16.8c4.5-0.9,9.1-1.3,13.8-1
		c7.2,2.4,14.1,5.5,20.7,9.4c3.7,3.3,6.9,6.9,9.9,10.8c6.4,6.1,14,9.5,22.7,10.4h32.6V373.9z M234.7,303.2c4.4,5.9,9,11.7,13.8,17.3
		c5.6,6.1,12.5,10.2,20.7,12.4c9.6,0.5,19.1,0.7,28.7,0.5c0.9,2.5,1.2,5.1,0.9,7.9c-11,0.3-21.9,0-32.6-1
		c-10.8-2.6-18.8-8.9-23.7-18.8c-2.8-7-7.2-13.1-12.8-18.3c-1.9-1.1-3.8-2-5.9-2.5c-3-0.2-6,0-8.9,0.5c-0.9,0.3-1.5,0.8-2,1.5
		c8.1,1.1,14,5.4,17.7,12.8c-0.3,0.3-0.7,0.7-1,1c-4-2.5-8.3-4.2-12.8-4.9h-2c-2,0.5-3.9,0.7-5.9,0.5c0.7-0.3,1.3-0.7,2-1
		c-3.6-0.3-7.3-0.7-10.8-1c-55.3-0.5-110.5-0.7-165.8-0.5v-1c-0.6-0.4-0.9-1-1-2c1.3-1.8,2.7-3.4,4.4-4.9c1-1.5,1.5-3.2,1.5-4.9
		c62-0.3,123.9,0,185.6,1C228.5,298.8,231.8,300.6,234.7,303.2z M40.1,237.7v-6.9h20.7v6.9H40.1z M60.8,252.5v6.9H42.1
		c-0.9-2.5-1.3-5-0.9-7.9C47.9,251.2,54.4,251.5,60.8,252.5z M167.5,212.6c9.4-7.3,20-9.5,31.6-6.4c19.4,6.2,28,19.4,25.7,39.5
		c-2.4,15.4-11,26.1-25.7,32.1c-11.8,3-22.9,1.6-33.6-3.9c-3.8-2.3-6.7-5.5-8.9-9.4c0.5-1,1.2-1.2,2-0.5
		c11.7,13.4,25.8,16.6,42.5,9.9c16.2-7.6,23.5-20.2,21.8-38.1c-3.5-17.3-14-26.5-31.6-27.6c-1.2,0.3-1.2,0.8,0,1.5
		c4,0.8,7.6,2.2,10.8,4.4c3.6,1.6,6.2,4.3,7.9,7.9c6.1,9.5,7.5,19.6,4.4,30.6c-1.4,2.1-2.8,4.1-4.4,5.9c-3,4.1-6.9,6.7-11.9,7.9
		c-0.3,0.9-1,1.2-2,1c-2.7,0.9-5.7,1.3-8.9,1c-1.5,1.1-3.1,1.3-4.9,0.5c-3.7-0.3-7-1.5-9.9-3.5c-1.5-0.3-2.9-0.9-3.9-2
		c-2.8-1.3-5.1-3.2-6.9-5.9C150.9,241,152.9,226.1,167.5,212.6z M145.8,205.8c6.1-1,12.4-1.2,18.8-0.5c-0.6,0.8-1.3,1.2-2,1.5
		c-6.7,5.2-11.1,11.9-12.8,20.1c-2.5-7.8-6.7-14.4-12.8-20.1C139.8,205.9,142.8,205.5,145.8,205.8z M94.4,209c1.5-1.7,3.5-2.7,5.9-3
		c3-1.5,6.3-2.1,9.9-2c2.5,0,4.8,0.3,6.9,1c5.5,0.8,10.1,3.1,13.8,6.9h1c2.4,2.1,4.1,4.8,4.9,7.9c1.4,0.4,2,1.5,1.9,2.9
		c2.4,3.8,3.4,8.1,3,12.8c0.2,4.3-0.5,8.2-2,11.9c-0.4,1.8-1,3.4-2,4.9c-0.6,0.9-0.9,1.9-1,3c0.5,4.8-1.5,7.8-5.9,8.9
		c-2.6-2.6-3.9-2-3.9,2c-5.5,0.4-10.9,1.1-16.3,2c-4.4,0.1-8.4-0.5-12.4-2v-1c-3.8-0.8-6.8-2.7-8.9-5.9h-1c-0.7-2-1.3-3.9-2-5.9
		c-1.3,5-2.6,4.7-3.9-1c-3.2-4.9-4.5-10.3-3.9-16.3c-0.6-6,0.8-11.4,3.9-16.3v-0.9c2-3.1,4.7-5.4,7.9-6.9
		C91.5,210.6,92.7,209.6,94.4,209z M68.7,203c6-0.2,11.9,0,17.7,0.5c-6.1,4.5-10.6,10.3-13.2,17.4c-2.7,10.1-3.2,20.3-1.5,30.6
		c1.9,2.7,3.5,5.7,4.9,8.9c5.5,5.4,11.9,9.9,18.8,13.3c6.8,1.3,13.7,1.8,20.7,1.5h3c5-2.4,10-4.9,14.8-7.9c0.7-0.3,1.3-0.7,2-1
		c4.3-4.3,8.3-8.9,11.9-13.8c1,8.2,1.3,16.5,1,24.7h-31.6c-12.4,0.5-24.8,0.5-37.5,0H69.7c-0.2-2-0.3-4-0.3-6.1
		C68.7,248.4,68.4,225.8,68.7,203z M60.8,278.1h-1c-5.4,0.9-11,1.3-16.8,1l0.1-6.9h18.8C62.1,274.5,61.9,276.4,60.8,278.1z
		 M60.8,210.1v6.9H37.1v-6.9H60.8z M162,150.9c-1.1,1.5-2,1.3-2.5-0.5c-2.5-6.6-4.8-13.1-6.9-19.7c-7.4-1.3-15-2-22.7-2
		c-2.6-2.1-3.6-4.9-3-8.4c10.2-0.2,20.4,0,30.6,0.5l1.5,1.5c0.8,4.7,1.8,9.3,3,13.8C162.7,141,162.7,145.9,162,150.9z"/>
	<path class="st13" d="M392.6,154.8c-7.6,0.4-15.2,1.1-22.7,2c-9,0.3-17.9,0.9-26.6,2h-10.9c-11.7,0.4-23.2,1-34.5,2
		c-6,0.2-11.9,0-17.7-0.5c11.9-3.3,24.1-5.3,36.5-5.9c19.4-1.2,38.8-1.7,58.3-1.5C380.7,153.5,386.6,154.1,392.6,154.8z"/>
	<path class="st13" d="M429.2,85.2c0.3,0.3,0.6,0.6,0.9,0.9v-2.9C429.8,83.8,429.5,84.5,429.2,85.2z M426.2,72.8v-2
		c1.7-4.3,3-5.7,3.9-4.2V48.2c-29-0.1-58-0.1-86.9,0c-21.1-0.3-42.1,0-63.2,1c-2.8,0.8-5.5,1.7-7.9,3c-4.9,0.2-9.6,1.5-13.8,3.9
		c-7.3,3.2-13.7,7.8-19.3,13.8c-12.5,19.3-24.1,39.1-35.1,59.2c-6.2,5.7-7.8,12.5-4.9,20.2c9.7,1.5,19.6,2,29.6,1.5
		c2-2.2,4.3-2.6,6.9-1c5.7-0.9,11.7-1.3,17.7-1c11.7,0.3,23.2,0,34.5-1c19.4,0.2,38.8-0.2,58.3-1c27.9-0.8,56-1.1,84.1-1.1v-10.5
		h-60.2c-6.2-0.4-12.5-0.7-18.8-1c-1.4,0.9-3.1,1.3-4.9,1c-24.1,0.1-48,0.8-72.1,2h-11.9c-5.4,0.9-11,1.3-16.8,1
		c-7.1-0.3-14,0-20.7,1v1c-4.6,0.2-9.2,0-13.8-0.5c-2.6-1.5-2.2-2.3,1-2.5c0.1-1.5-0.3-2.7-1-3.9h3c2.8-4.3,5.5-8.5,8.4-12.8
		c1.9-3.1,3.2-6.4,3.9-9.9c7-10,13.6-20.1,19.7-30.6c5.3-6.1,11.3-11.3,18.3-15.3c1.6-0.5,3.2-0.7,4.9-0.5v-1c0.8-0.8,1.7-1.3,3-1.5
		c4.3-0.5,8.5-0.7,12.8-0.5h4.9c14.9-1,30.1-1.6,45.4-2v-1h91.8c-2.5,2.2-4.4,4.9-5.9,7.9c0.3,2.8,0,5.5-1,7.9
		c-8.5-0.2-17.1,0-25.7,0.5c-4.2,6.1-3.8,11.9,1,17.3c7.8,1,15.8,1.3,23.7,1c3.7,0.1,7.3,0.1,10.9,0.1v-6.7
		c-2.7,0.7-5.2,0.6-7.8-0.5c1.1-1.4,1.1-2.6,0-3.9c-1.5,1.4-2.1,3-2,4.9h-11.9v-1h-1v1c-3,1.3-5.9,1.3-8.9,0c-0.9-2-1.3-4.4-1-6.9
		c5.4-0.9,11-1.3,16.8-1c3.8-0.8,7.7-1.3,11.9-1.5c-0.9-1-1.2-2.1-1-3.5C425.2,73.2,425.5,72.8,426.2,72.8z M382.7,142.9H381
		C381.5,142.8,382.1,142.8,382.7,142.9z"/>
	<rect x="409.6" y="237.6" class="st2" width="21.1" height="21.8"/>
	<rect x="408.9" y="268.7" class="st2" width="21.1" height="17.4"/>
	<rect x="412.4" y="294.2" class="st2" width="19.5" height="17.9"/>
	<polygon class="st2" points="433.2,339.3 412.1,339.1 412.2,320.7 433.2,320.7 	"/>
	<g>
		<rect x="363" y="322.6" class="st14" width="67.1" height="60.2"/>
		<g class="st11">
			<path class="st2" d="M400,334.2V346h-9.8v-11.8h-10.3v32.9h10.3v-12.8h9.8v12.8h10.3v-32.9H400z"/>
			<path class="st2" d="M425.3,346v-11.8H415v32.9h10.3v-12.8h4.8V346H425.3z"/>
		</g>
	</g>
</g>
<path class="st15" d="M430.2,95.8c-0.1,0-0.1,0-0.2,0v-0.2L430.2,95.8z"/>
</svg>
